<svg width="363" height="87" viewBox="0 0 363 87" fill="none" xmlns="http://www.w3.org/2000/svg">
<rect width="362" height="87" transform="translate(0.5)" fill="#DD4343"/>
<ellipse cx="181.5" cy="43.5" rx="171" ry="38.5" fill="#FFFAED"/>
<path d="M111.194 28.624C117.21 28.624 121.962 29.36 125.45 30.832C128.938 32.272 131.37 34.288 132.746 36.88C134.154 39.44 134.858 42.592 134.858 46.336C134.858 49.888 134.058 52.992 132.458 55.648C130.858 58.304 128.458 60.368 125.258 61.84C122.058 63.28 118.122 64 113.45 64C110.602 64 107.706 64 104.762 64C101.818 64 98.8421 63.984 95.8341 63.952C96.0901 57.648 96.2181 51.776 96.2181 46.336C96.2181 40.832 96.0901 35.088 95.8341 29.104C99.6421 28.784 104.762 28.624 111.194 28.624ZM114.794 54.448C117.77 54.448 119.754 53.728 120.746 52.288C121.738 50.848 122.234 48.864 122.234 46.336C122.234 43.904 121.706 41.936 120.65 40.432C119.626 38.928 117.674 38.176 114.794 38.176C111.69 38.176 109.37 38.272 107.834 38.464V54.448H114.794ZM160.038 64.48C152.71 64.48 147.318 62.896 143.862 59.728C140.406 56.528 138.678 52.048 138.678 46.288C138.678 40.592 140.39 36.144 143.814 32.944C147.27 29.744 152.678 28.144 160.038 28.144C167.43 28.144 172.838 29.744 176.262 32.944C179.718 36.144 181.446 40.592 181.446 46.288C181.446 52.08 179.734 56.56 176.31 59.728C172.886 62.896 167.462 64.48 160.038 64.48ZM160.038 54.688C163.59 54.688 166.15 54.016 167.718 52.672C169.286 51.296 170.07 49.168 170.07 46.288C170.07 43.472 169.286 41.376 167.718 40C166.15 38.624 163.59 37.936 160.038 37.936C156.518 37.936 153.974 38.624 152.406 40C150.838 41.376 150.054 43.472 150.054 46.288C150.054 49.136 150.838 51.248 152.406 52.624C153.974 54 156.518 54.688 160.038 54.688ZM225.544 29.2C225.32 34.608 225.208 40.4 225.208 46.576C225.208 52.784 225.32 58.592 225.544 64H208.36L196.744 37.792L197.608 64H185.272C185.528 57.792 185.656 51.984 185.656 46.576C185.656 41.2 185.528 35.408 185.272 29.2H202.936L214.6 56.128L213.784 29.2H225.544ZM240.709 55.216C252.869 55.152 261.685 54.976 267.157 54.688C266.933 56 266.789 57.36 266.725 58.768C266.693 60.144 266.677 61.888 266.677 64H229.381C229.637 57.792 229.765 51.984 229.765 46.576C229.765 41.168 229.637 35.36 229.381 29.152H266.677V37.84H240.709V42.448C242.245 42.48 244.517 42.496 247.525 42.496C252.613 42.496 257.877 42.4 263.317 42.208V50.464C257.877 50.272 252.613 50.176 247.525 50.176C244.517 50.176 242.245 50.192 240.709 50.224V55.216Z" fill="#DD4343"/>
</svg>
