<svg width="362" height="87" viewBox="0 0 362 87" fill="none" xmlns="http://www.w3.org/2000/svg">
<rect width="362" height="87" fill="#DD4343"/>
<ellipse cx="181" cy="43.5" rx="171" ry="38.5" fill="#FFFAED"/>
<path d="M123.254 39.232C118.23 39.072 113.35 38.976 108.614 38.944V64H96.6136V38.944C91.8456 38.976 86.9816 39.072 82.0216 39.232V29.152H123.254V39.232ZM145.616 64.48C138.288 64.48 132.896 62.896 129.44 59.728C125.984 56.528 124.256 52.048 124.256 46.288C124.256 40.592 125.968 36.144 129.392 32.944C132.848 29.744 138.256 28.144 145.616 28.144C153.008 28.144 158.416 29.744 161.84 32.944C165.296 36.144 167.024 40.592 167.024 46.288C167.024 52.08 165.312 56.56 161.888 59.728C158.464 62.896 153.04 64.48 145.616 64.48ZM145.616 54.688C149.168 54.688 151.728 54.016 153.296 52.672C154.864 51.296 155.648 49.168 155.648 46.288C155.648 43.472 154.864 41.376 153.296 40C151.728 38.624 149.168 37.936 145.616 37.936C142.096 37.936 139.552 38.624 137.984 40C136.416 41.376 135.632 43.472 135.632 46.288C135.632 49.136 136.416 51.248 137.984 52.624C139.552 54 142.096 54.688 145.616 54.688Z" fill="#DD4343"/>
<path d="M191.01 52.336H170.37V42.976H191.01V52.336ZM209.741 28.624C215.757 28.624 220.509 29.36 223.997 30.832C227.485 32.272 229.917 34.288 231.293 36.88C232.701 39.44 233.405 42.592 233.405 46.336C233.405 49.888 232.605 52.992 231.005 55.648C229.405 58.304 227.005 60.368 223.805 61.84C220.605 63.28 216.669 64 211.997 64C209.149 64 206.253 64 203.309 64C200.365 64 197.389 63.984 194.381 63.952C194.637 57.648 194.765 51.776 194.765 46.336C194.765 40.832 194.637 35.088 194.381 29.104C198.189 28.784 203.309 28.624 209.741 28.624ZM213.341 54.448C216.317 54.448 218.301 53.728 219.293 52.288C220.285 50.848 220.781 48.864 220.781 46.336C220.781 43.904 220.253 41.936 219.197 40.432C218.173 38.928 216.221 38.176 213.341 38.176C210.237 38.176 207.917 38.272 206.381 38.464V54.448H213.341ZM258.585 64.48C251.257 64.48 245.865 62.896 242.409 59.728C238.953 56.528 237.225 52.048 237.225 46.288C237.225 40.592 238.937 36.144 242.361 32.944C245.817 29.744 251.225 28.144 258.585 28.144C265.977 28.144 271.385 29.744 274.809 32.944C278.265 36.144 279.993 40.592 279.993 46.288C279.993 52.08 278.281 56.56 274.857 59.728C271.433 62.896 266.009 64.48 258.585 64.48ZM258.585 54.688C262.137 54.688 264.697 54.016 266.265 52.672C267.833 51.296 268.617 49.168 268.617 46.288C268.617 43.472 267.833 41.376 266.265 40C264.697 38.624 262.137 37.936 258.585 37.936C255.065 37.936 252.521 38.624 250.953 40C249.385 41.376 248.601 43.472 248.601 46.288C248.601 49.136 249.385 51.248 250.953 52.624C252.521 54 255.065 54.688 258.585 54.688Z" fill="#DD4343"/>
</svg>
