<svg width="825" height="98" viewBox="0 0 825 98" fill="none" xmlns="http://www.w3.org/2000/svg">
<mask id="path-1-outside-1_23_3161" maskUnits="userSpaceOnUse" x="2" y="13" width="823" height="85" fill="black">
<rect fill="white" x="2" y="13" width="823" height="85"/>
<path d="M94.5949 39.82C83.6049 39.47 72.9299 39.26 62.5699 39.19V94H36.3199V39.19C25.8899 39.26 15.2499 39.47 4.39989 39.82V17.77H94.5949V39.82ZM145.613 95.05C129.583 95.05 117.788 91.585 110.228 84.655C102.668 77.655 98.8876 67.855 98.8876 55.255C98.8876 42.795 102.633 33.065 110.123 26.065C117.683 19.065 129.513 15.565 145.613 15.565C161.783 15.565 173.613 19.065 181.103 26.065C188.663 33.065 192.443 42.795 192.443 55.255C192.443 67.925 188.698 77.725 181.208 84.655C173.718 91.585 161.853 95.05 145.613 95.05ZM145.613 73.63C153.383 73.63 158.983 72.16 162.413 69.22C165.843 66.21 167.558 61.555 167.558 55.255C167.558 49.095 165.843 44.51 162.413 41.5C158.983 38.49 153.383 36.985 145.613 36.985C137.913 36.985 132.348 38.49 128.918 41.5C125.488 44.51 123.773 49.095 123.773 55.255C123.773 61.485 125.488 66.105 128.918 69.115C132.348 72.125 137.913 73.63 145.613 73.63ZM247.011 68.485H201.861V48.01H247.011V68.485ZM290.086 16.615C303.246 16.615 313.641 18.225 321.271 21.445C328.901 24.595 334.221 29.005 337.231 34.675C340.311 40.275 341.851 47.17 341.851 55.36C341.851 63.13 340.101 69.92 336.601 75.73C333.101 81.54 327.851 86.055 320.851 89.275C313.851 92.425 305.241 94 295.021 94C288.791 94 282.456 94 276.016 94C269.576 94 263.066 93.965 256.486 93.895C257.046 80.105 257.326 67.26 257.326 55.36C257.326 43.32 257.046 30.755 256.486 17.665C264.816 16.965 276.016 16.615 290.086 16.615ZM297.961 73.105C304.471 73.105 308.811 71.53 310.981 68.38C313.151 65.23 314.236 60.89 314.236 55.36C314.236 50.04 313.081 45.735 310.771 42.445C308.531 39.155 304.261 37.51 297.961 37.51C291.171 37.51 286.096 37.72 282.736 38.14V73.105H297.961ZM399.032 95.05C383.002 95.05 371.207 91.585 363.647 84.655C356.087 77.655 352.307 67.855 352.307 55.255C352.307 42.795 356.052 33.065 363.542 26.065C371.102 19.065 382.932 15.565 399.032 15.565C415.202 15.565 427.032 19.065 434.522 26.065C442.082 33.065 445.862 42.795 445.862 55.255C445.862 67.925 442.117 77.725 434.627 84.655C427.137 91.585 415.272 95.05 399.032 95.05ZM399.032 73.63C406.802 73.63 412.402 72.16 415.832 69.22C419.262 66.21 420.977 61.555 420.977 55.255C420.977 49.095 419.262 44.51 415.832 41.5C412.402 38.49 406.802 36.985 399.032 36.985C391.332 36.985 385.767 38.49 382.337 41.5C378.907 44.51 377.192 49.095 377.192 55.255C377.192 61.485 378.907 66.105 382.337 69.115C385.767 72.125 391.332 73.63 399.032 73.63ZM505.071 72.79C525.371 72.65 542.171 72.3 555.471 71.74C554.561 75.31 554.001 78.74 553.791 82.03C553.581 85.32 553.476 89.31 553.476 94H479.451C480.011 80.42 480.291 67.715 480.291 55.885C480.291 44.055 480.011 31.35 479.451 17.77H505.071V72.79ZM626.946 38.665C618.616 38.245 612.456 38 608.466 37.93V73.84C612.526 73.77 618.686 73.525 626.946 73.105V94H565.941V73.105C573.991 73.525 580.116 73.77 584.316 73.84V37.93C580.116 38 573.991 38.245 565.941 38.665V17.77H626.946V38.665ZM637.46 84.97C639.84 81.4 641.8 78.075 643.34 74.995C644.95 71.915 646.49 68.345 647.96 64.285C652.93 67.155 658.705 69.395 665.285 71.005C671.865 72.615 677.99 73.42 683.66 73.42C689.47 73.42 693.565 72.93 695.945 71.95C698.325 70.9 699.515 69.78 699.515 68.59C699.515 64.32 693.005 62.185 679.985 62.185C665.705 62.185 655.345 60.715 648.905 57.775C642.465 54.765 639.245 49.935 639.245 43.285C639.245 33.835 643.165 26.87 651.005 22.39C658.845 17.91 669.03 15.67 681.56 15.67C688.84 15.67 696.295 16.615 703.925 18.505C711.625 20.325 718.555 22.845 724.715 26.065C722.685 30.685 720.55 36.32 718.31 42.97C717.89 44.37 717.54 45.42 717.26 46.12C713.69 43.25 708.3 40.87 701.09 38.98C693.88 37.02 687.51 36.04 681.98 36.04C675.33 36.04 670.85 36.495 668.54 37.405C666.23 38.245 665.075 39.505 665.075 41.185C665.075 42.865 666.65 44.23 669.8 45.28C673.02 46.26 677.64 46.75 683.66 46.75C698.5 46.75 709.28 48.465 716 51.895C722.72 55.255 726.08 60.435 726.08 67.435C726.08 77.235 722.51 84.305 715.37 88.645C708.23 92.915 697.415 95.05 682.925 95.05C675.155 95.05 667.245 94.21 659.195 92.53C651.145 90.78 643.9 88.26 637.46 84.97ZM822.553 39.82C811.563 39.47 800.888 39.26 790.528 39.19V94H764.278V39.19C753.848 39.26 743.208 39.47 732.358 39.82V17.77H822.553V39.82Z"/>
</mask>
<path d="M94.5949 39.82C83.6049 39.47 72.9299 39.26 62.5699 39.19V94H36.3199V39.19C25.8899 39.26 15.2499 39.47 4.39989 39.82V17.77H94.5949V39.82ZM145.613 95.05C129.583 95.05 117.788 91.585 110.228 84.655C102.668 77.655 98.8876 67.855 98.8876 55.255C98.8876 42.795 102.633 33.065 110.123 26.065C117.683 19.065 129.513 15.565 145.613 15.565C161.783 15.565 173.613 19.065 181.103 26.065C188.663 33.065 192.443 42.795 192.443 55.255C192.443 67.925 188.698 77.725 181.208 84.655C173.718 91.585 161.853 95.05 145.613 95.05ZM145.613 73.63C153.383 73.63 158.983 72.16 162.413 69.22C165.843 66.21 167.558 61.555 167.558 55.255C167.558 49.095 165.843 44.51 162.413 41.5C158.983 38.49 153.383 36.985 145.613 36.985C137.913 36.985 132.348 38.49 128.918 41.5C125.488 44.51 123.773 49.095 123.773 55.255C123.773 61.485 125.488 66.105 128.918 69.115C132.348 72.125 137.913 73.63 145.613 73.63ZM247.011 68.485H201.861V48.01H247.011V68.485ZM290.086 16.615C303.246 16.615 313.641 18.225 321.271 21.445C328.901 24.595 334.221 29.005 337.231 34.675C340.311 40.275 341.851 47.17 341.851 55.36C341.851 63.13 340.101 69.92 336.601 75.73C333.101 81.54 327.851 86.055 320.851 89.275C313.851 92.425 305.241 94 295.021 94C288.791 94 282.456 94 276.016 94C269.576 94 263.066 93.965 256.486 93.895C257.046 80.105 257.326 67.26 257.326 55.36C257.326 43.32 257.046 30.755 256.486 17.665C264.816 16.965 276.016 16.615 290.086 16.615ZM297.961 73.105C304.471 73.105 308.811 71.53 310.981 68.38C313.151 65.23 314.236 60.89 314.236 55.36C314.236 50.04 313.081 45.735 310.771 42.445C308.531 39.155 304.261 37.51 297.961 37.51C291.171 37.51 286.096 37.72 282.736 38.14V73.105H297.961ZM399.032 95.05C383.002 95.05 371.207 91.585 363.647 84.655C356.087 77.655 352.307 67.855 352.307 55.255C352.307 42.795 356.052 33.065 363.542 26.065C371.102 19.065 382.932 15.565 399.032 15.565C415.202 15.565 427.032 19.065 434.522 26.065C442.082 33.065 445.862 42.795 445.862 55.255C445.862 67.925 442.117 77.725 434.627 84.655C427.137 91.585 415.272 95.05 399.032 95.05ZM399.032 73.63C406.802 73.63 412.402 72.16 415.832 69.22C419.262 66.21 420.977 61.555 420.977 55.255C420.977 49.095 419.262 44.51 415.832 41.5C412.402 38.49 406.802 36.985 399.032 36.985C391.332 36.985 385.767 38.49 382.337 41.5C378.907 44.51 377.192 49.095 377.192 55.255C377.192 61.485 378.907 66.105 382.337 69.115C385.767 72.125 391.332 73.63 399.032 73.63ZM505.071 72.79C525.371 72.65 542.171 72.3 555.471 71.74C554.561 75.31 554.001 78.74 553.791 82.03C553.581 85.32 553.476 89.31 553.476 94H479.451C480.011 80.42 480.291 67.715 480.291 55.885C480.291 44.055 480.011 31.35 479.451 17.77H505.071V72.79ZM626.946 38.665C618.616 38.245 612.456 38 608.466 37.93V73.84C612.526 73.77 618.686 73.525 626.946 73.105V94H565.941V73.105C573.991 73.525 580.116 73.77 584.316 73.84V37.93C580.116 38 573.991 38.245 565.941 38.665V17.77H626.946V38.665ZM637.46 84.97C639.84 81.4 641.8 78.075 643.34 74.995C644.95 71.915 646.49 68.345 647.96 64.285C652.93 67.155 658.705 69.395 665.285 71.005C671.865 72.615 677.99 73.42 683.66 73.42C689.47 73.42 693.565 72.93 695.945 71.95C698.325 70.9 699.515 69.78 699.515 68.59C699.515 64.32 693.005 62.185 679.985 62.185C665.705 62.185 655.345 60.715 648.905 57.775C642.465 54.765 639.245 49.935 639.245 43.285C639.245 33.835 643.165 26.87 651.005 22.39C658.845 17.91 669.03 15.67 681.56 15.67C688.84 15.67 696.295 16.615 703.925 18.505C711.625 20.325 718.555 22.845 724.715 26.065C722.685 30.685 720.55 36.32 718.31 42.97C717.89 44.37 717.54 45.42 717.26 46.12C713.69 43.25 708.3 40.87 701.09 38.98C693.88 37.02 687.51 36.04 681.98 36.04C675.33 36.04 670.85 36.495 668.54 37.405C666.23 38.245 665.075 39.505 665.075 41.185C665.075 42.865 666.65 44.23 669.8 45.28C673.02 46.26 677.64 46.75 683.66 46.75C698.5 46.75 709.28 48.465 716 51.895C722.72 55.255 726.08 60.435 726.08 67.435C726.08 77.235 722.51 84.305 715.37 88.645C708.23 92.915 697.415 95.05 682.925 95.05C675.155 95.05 667.245 94.21 659.195 92.53C651.145 90.78 643.9 88.26 637.46 84.97ZM822.553 39.82C811.563 39.47 800.888 39.26 790.528 39.19V94H764.278V39.19C753.848 39.26 743.208 39.47 732.358 39.82V17.77H822.553V39.82Z" fill="#DD4343"/>
<path d="M94.5949 39.82L94.5312 41.819L96.5949 41.8847V39.82H94.5949ZM62.5699 39.19L62.5834 37.19L60.5699 37.1764V39.19H62.5699ZM62.5699 94V96H64.5699V94H62.5699ZM36.3199 94H34.3199V96H36.3199V94ZM36.3199 39.19H38.3199V37.1765L36.3065 37.19L36.3199 39.19ZM4.39989 39.82H2.39989V41.8856L4.46437 41.819L4.39989 39.82ZM4.39989 17.77V15.77H2.39989V17.77H4.39989ZM94.5949 17.77H96.5949V15.77H94.5949V17.77ZM94.6586 37.821C83.6529 37.4705 72.9611 37.2602 62.5834 37.19L62.5564 41.1899C72.8987 41.2598 83.5569 41.4695 94.5312 41.819L94.6586 37.821ZM60.5699 39.19V94H64.5699V39.19H60.5699ZM62.5699 92H36.3199V96H62.5699V92ZM38.3199 94V39.19H34.3199V94H38.3199ZM36.3065 37.19C25.8588 37.2602 15.2017 37.4705 4.33541 37.821L4.46437 41.819C15.298 41.4695 25.921 41.2598 36.3333 41.19L36.3065 37.19ZM6.39989 39.82V17.77H2.39989V39.82H6.39989ZM4.39989 19.77H94.5949V15.77H4.39989V19.77ZM92.5949 17.77V39.82H96.5949V17.77H92.5949ZM110.228 84.655L108.869 86.1225L108.876 86.1293L110.228 84.655ZM110.123 26.065L108.764 24.5975L108.757 24.6038L110.123 26.065ZM181.103 26.065L179.737 27.5262L179.744 27.5325L181.103 26.065ZM181.208 84.655L182.566 86.123V86.123L181.208 84.655ZM162.413 69.22L163.714 70.7385L163.723 70.7309L163.732 70.7233L162.413 69.22ZM162.413 41.5L161.093 43.0033L162.413 41.5ZM128.918 41.5L130.237 43.0033L128.918 41.5ZM128.918 69.115L130.237 67.6117L128.918 69.115ZM145.613 93.05C129.813 93.05 118.61 89.626 111.579 83.1807L108.876 86.1293C116.965 93.544 129.353 97.05 145.613 97.05V93.05ZM111.586 83.1875C104.524 76.6482 100.888 67.4316 100.888 55.255H96.8876C96.8876 68.2784 100.811 78.6618 108.869 86.1225L111.586 83.1875ZM100.888 55.255C100.888 43.2203 104.488 34.0683 111.488 27.5262L108.757 24.6038C100.777 32.0616 96.8876 42.3697 96.8876 55.255H100.888ZM111.481 27.5325C118.511 21.0234 129.744 17.565 145.613 17.565V13.565C129.281 13.565 116.854 17.1066 108.764 24.5975L111.481 27.5325ZM145.613 17.565C161.556 17.565 172.781 21.0255 179.737 27.5262L182.468 24.6038C174.444 17.1045 162.009 13.565 145.613 13.565V17.565ZM179.744 27.5325C186.811 34.0761 190.443 43.2261 190.443 55.255H194.443C194.443 42.3639 190.514 32.0539 182.461 24.5975L179.744 27.5325ZM190.443 55.255C190.443 67.512 186.835 76.7235 179.849 83.187L182.566 86.123C190.56 78.7265 194.443 68.338 194.443 55.255H190.443ZM179.849 83.187C172.895 89.6215 161.633 93.05 145.613 93.05V97.05C162.072 97.05 174.54 93.5485 182.566 86.123L179.849 83.187ZM145.613 75.63C153.546 75.63 159.739 74.1457 163.714 70.7385L161.111 67.7015C158.226 70.1743 153.219 71.63 145.613 71.63V75.63ZM163.732 70.7233C167.741 67.2052 169.558 61.9025 169.558 55.255H165.558C165.558 61.2075 163.944 65.2148 161.093 67.7168L163.732 70.7233ZM169.558 55.255C169.558 48.7309 167.732 43.5067 163.732 39.9967L161.093 43.0033C163.954 45.5133 165.558 49.4591 165.558 55.255H169.558ZM163.732 39.9967C159.755 36.5072 153.554 34.985 145.613 34.985V38.985C153.211 38.985 158.21 40.4728 161.093 43.0033L163.732 39.9967ZM145.613 34.985C137.735 34.985 131.572 36.5094 127.598 39.9967L130.237 43.0033C133.123 40.4706 138.09 38.985 145.613 38.985V34.985ZM127.598 39.9967C123.599 43.5067 121.773 48.7309 121.773 55.255H125.773C125.773 49.4591 127.377 45.5133 130.237 43.0033L127.598 39.9967ZM121.773 55.255C121.773 61.8408 123.594 67.1042 127.598 70.6182L130.237 67.6117C127.381 65.1058 125.773 61.1292 125.773 55.255H121.773ZM127.598 70.6182C131.572 74.1056 137.735 75.63 145.613 75.63V71.63C138.09 71.63 133.123 70.1444 130.237 67.6117L127.598 70.6182ZM247.011 68.485V70.485H249.011V68.485H247.011ZM201.861 68.485H199.861V70.485H201.861V68.485ZM201.861 48.01V46.01H199.861V48.01H201.861ZM247.011 48.01H249.011V46.01H247.011V48.01ZM247.011 66.485H201.861V70.485H247.011V66.485ZM203.861 68.485V48.01H199.861V68.485H203.861ZM201.861 50.01H247.011V46.01H201.861V50.01ZM245.011 48.01V68.485H249.011V48.01H245.011ZM321.271 21.445L320.493 23.2876L320.501 23.2907L320.508 23.2936L321.271 21.445ZM337.231 34.675L335.465 35.6128L335.471 35.6259L335.479 35.6388L337.231 34.675ZM336.601 75.73L334.888 74.698L336.601 75.73ZM320.851 89.275L321.672 91.0988L321.679 91.0954L321.687 91.092L320.851 89.275ZM256.486 93.895L254.488 93.8139L254.404 95.873L256.465 95.8949L256.486 93.895ZM256.486 17.665L256.319 15.672L254.406 15.8328L254.488 17.7505L256.486 17.665ZM310.981 68.38L309.334 67.2454L310.981 68.38ZM310.771 42.445L309.118 43.5706L309.126 43.5825L309.134 43.5943L310.771 42.445ZM282.736 38.14L282.488 36.1554L280.736 36.3744V38.14H282.736ZM282.736 73.105H280.736V75.105H282.736V73.105ZM290.086 18.615C303.118 18.615 313.212 20.2146 320.493 23.2876L322.049 19.6024C314.07 16.2354 303.374 14.615 290.086 14.615V18.615ZM320.508 23.2936C327.833 26.3177 332.729 30.4595 335.465 35.6128L338.998 33.7372C335.713 27.5505 329.969 22.8723 322.034 19.5963L320.508 23.2936ZM335.479 35.6388C338.357 40.8718 339.851 47.4144 339.851 55.36H343.851C343.851 46.9256 342.265 39.6781 338.983 33.7112L335.479 35.6388ZM339.851 55.36C339.851 62.8203 338.174 69.2427 334.888 74.698L338.314 76.762C342.028 70.5973 343.851 63.4397 343.851 55.36H339.851ZM334.888 74.698C331.622 80.1189 326.702 84.3821 320.015 87.458L321.687 91.092C329 87.7279 334.58 82.9611 338.314 76.762L334.888 74.698ZM320.03 87.4512C313.359 90.4533 305.047 92 295.021 92V96C305.435 96 314.343 94.3967 321.672 91.0988L320.03 87.4512ZM295.021 92C295.009 92 294.997 92 294.985 92C294.972 92 294.96 92 294.948 92C294.936 92 294.924 92 294.911 92C294.899 92 294.887 92 294.875 92C294.863 92 294.851 92 294.838 92C294.826 92 294.814 92 294.802 92C294.79 92 294.778 92 294.765 92C294.753 92 294.741 92 294.729 92C294.717 92 294.705 92 294.692 92C294.68 92 294.668 92 294.656 92C294.644 92 294.632 92 294.619 92C294.607 92 294.595 92 294.583 92C294.571 92 294.558 92 294.546 92C294.534 92 294.522 92 294.51 92C294.498 92 294.485 92 294.473 92C294.461 92 294.449 92 294.437 92C294.424 92 294.412 92 294.4 92C294.388 92 294.376 92 294.364 92C294.351 92 294.339 92 294.327 92C294.315 92 294.303 92 294.29 92C294.278 92 294.266 92 294.254 92C294.242 92 294.23 92 294.217 92C294.205 92 294.193 92 294.181 92C294.169 92 294.156 92 294.144 92C294.132 92 294.12 92 294.108 92C294.095 92 294.083 92 294.071 92C294.059 92 294.047 92 294.035 92C294.022 92 294.01 92 293.998 92C293.986 92 293.974 92 293.961 92C293.949 92 293.937 92 293.925 92C293.913 92 293.9 92 293.888 92C293.876 92 293.864 92 293.852 92C293.839 92 293.827 92 293.815 92C293.803 92 293.791 92 293.779 92C293.766 92 293.754 92 293.742 92C293.73 92 293.718 92 293.705 92C293.693 92 293.681 92 293.669 92C293.657 92 293.644 92 293.632 92C293.62 92 293.608 92 293.596 92C293.583 92 293.571 92 293.559 92C293.547 92 293.535 92 293.522 92C293.51 92 293.498 92 293.486 92C293.474 92 293.461 92 293.449 92C293.437 92 293.425 92 293.413 92C293.4 92 293.388 92 293.376 92C293.364 92 293.352 92 293.339 92C293.327 92 293.315 92 293.303 92C293.29 92 293.278 92 293.266 92C293.254 92 293.242 92 293.229 92C293.217 92 293.205 92 293.193 92C293.181 92 293.168 92 293.156 92C293.144 92 293.132 92 293.12 92C293.107 92 293.095 92 293.083 92C293.071 92 293.059 92 293.046 92C293.034 92 293.022 92 293.01 92C292.997 92 292.985 92 292.973 92C292.961 92 292.949 92 292.936 92C292.924 92 292.912 92 292.9 92C292.888 92 292.875 92 292.863 92C292.851 92 292.839 92 292.826 92C292.814 92 292.802 92 292.79 92C292.778 92 292.765 92 292.753 92C292.741 92 292.729 92 292.717 92C292.704 92 292.692 92 292.68 92C292.668 92 292.655 92 292.643 92C292.631 92 292.619 92 292.607 92C292.594 92 292.582 92 292.57 92C292.558 92 292.545 92 292.533 92C292.521 92 292.509 92 292.497 92C292.484 92 292.472 92 292.46 92C292.448 92 292.435 92 292.423 92C292.411 92 292.399 92 292.387 92C292.374 92 292.362 92 292.35 92C292.338 92 292.325 92 292.313 92C292.301 92 292.289 92 292.276 92C292.264 92 292.252 92 292.24 92C292.228 92 292.215 92 292.203 92C292.191 92 292.179 92 292.166 92C292.154 92 292.142 92 292.13 92C292.117 92 292.105 92 292.093 92C292.081 92 292.069 92 292.056 92C292.044 92 292.032 92 292.02 92C292.007 92 291.995 92 291.983 92C291.971 92 291.958 92 291.946 92C291.934 92 291.922 92 291.91 92C291.897 92 291.885 92 291.873 92C291.861 92 291.848 92 291.836 92C291.824 92 291.812 92 291.799 92C291.787 92 291.775 92 291.763 92C291.75 92 291.738 92 291.726 92C291.714 92 291.701 92 291.689 92C291.677 92 291.665 92 291.652 92C291.64 92 291.628 92 291.616 92C291.604 92 291.591 92 291.579 92C291.567 92 291.555 92 291.542 92C291.53 92 291.518 92 291.506 92C291.493 92 291.481 92 291.469 92C291.457 92 291.444 92 291.432 92C291.42 92 291.408 92 291.395 92C291.383 92 291.371 92 291.359 92C291.346 92 291.334 92 291.322 92C291.31 92 291.297 92 291.285 92C291.273 92 291.261 92 291.248 92C291.236 92 291.224 92 291.212 92C291.199 92 291.187 92 291.175 92C291.163 92 291.15 92 291.138 92C291.126 92 291.114 92 291.101 92C291.089 92 291.077 92 291.065 92C291.052 92 291.04 92 291.028 92C291.016 92 291.003 92 290.991 92C290.979 92 290.967 92 290.954 92C290.942 92 290.93 92 290.918 92C290.905 92 290.893 92 290.881 92C290.868 92 290.856 92 290.844 92C290.832 92 290.819 92 290.807 92C290.795 92 290.783 92 290.77 92C290.758 92 290.746 92 290.734 92C290.721 92 290.709 92 290.697 92C290.685 92 290.672 92 290.66 92C290.648 92 290.636 92 290.623 92C290.611 92 290.599 92 290.586 92C290.574 92 290.562 92 290.55 92C290.537 92 290.525 92 290.513 92C290.501 92 290.488 92 290.476 92C290.464 92 290.452 92 290.439 92C290.427 92 290.415 92 290.402 92C290.39 92 290.378 92 290.366 92C290.353 92 290.341 92 290.329 92C290.317 92 290.304 92 290.292 92C290.28 92 290.267 92 290.255 92C290.243 92 290.231 92 290.218 92C290.206 92 290.194 92 290.182 92C290.169 92 290.157 92 290.145 92C290.132 92 290.12 92 290.108 92C290.096 92 290.083 92 290.071 92C290.059 92 290.047 92 290.034 92C290.022 92 290.01 92 289.997 92C289.985 92 289.973 92 289.961 92C289.948 92 289.936 92 289.924 92C289.911 92 289.899 92 289.887 92C289.875 92 289.862 92 289.85 92C289.838 92 289.826 92 289.813 92C289.801 92 289.789 92 289.776 92C289.764 92 289.752 92 289.74 92C289.727 92 289.715 92 289.703 92C289.69 92 289.678 92 289.666 92C289.654 92 289.641 92 289.629 92C289.617 92 289.604 92 289.592 92C289.58 92 289.568 92 289.555 92C289.543 92 289.531 92 289.518 92C289.506 92 289.494 92 289.482 92C289.469 92 289.457 92 289.445 92C289.432 92 289.42 92 289.408 92C289.396 92 289.383 92 289.371 92C289.359 92 289.346 92 289.334 92C289.322 92 289.309 92 289.297 92C289.285 92 289.273 92 289.26 92C289.248 92 289.236 92 289.223 92C289.211 92 289.199 92 289.187 92C289.174 92 289.162 92 289.15 92C289.137 92 289.125 92 289.113 92C289.1 92 289.088 92 289.076 92C289.064 92 289.051 92 289.039 92C289.027 92 289.014 92 289.002 92C288.99 92 288.977 92 288.965 92C288.953 92 288.941 92 288.928 92C288.916 92 288.904 92 288.891 92C288.879 92 288.867 92 288.854 92C288.842 92 288.83 92 288.818 92C288.805 92 288.793 92 288.781 92C288.768 92 288.756 92 288.744 92C288.731 92 288.719 92 288.707 92C288.694 92 288.682 92 288.67 92C288.658 92 288.645 92 288.633 92C288.621 92 288.608 92 288.596 92C288.584 92 288.571 92 288.559 92C288.547 92 288.534 92 288.522 92C288.51 92 288.498 92 288.485 92C288.473 92 288.461 92 288.448 92C288.436 92 288.424 92 288.411 92C288.399 92 288.387 92 288.374 92C288.362 92 288.35 92 288.338 92C288.325 92 288.313 92 288.301 92C288.288 92 288.276 92 288.264 92C288.251 92 288.239 92 288.227 92C288.214 92 288.202 92 288.19 92C288.177 92 288.165 92 288.153 92C288.14 92 288.128 92 288.116 92C288.104 92 288.091 92 288.079 92C288.067 92 288.054 92 288.042 92C288.03 92 288.017 92 288.005 92C287.993 92 287.98 92 287.968 92C287.956 92 287.943 92 287.931 92C287.919 92 287.906 92 287.894 92C287.882 92 287.869 92 287.857 92C287.845 92 287.832 92 287.82 92C287.808 92 287.795 92 287.783 92C287.771 92 287.758 92 287.746 92C287.734 92 287.721 92 287.709 92C287.697 92 287.685 92 287.672 92C287.66 92 287.648 92 287.635 92C287.623 92 287.611 92 287.598 92C287.586 92 287.574 92 287.561 92C287.549 92 287.537 92 287.524 92C287.512 92 287.5 92 287.487 92C287.475 92 287.463 92 287.45 92C287.438 92 287.426 92 287.413 92C287.401 92 287.389 92 287.376 92C287.364 92 287.352 92 287.339 92C287.327 92 287.315 92 287.302 92C287.29 92 287.278 92 287.265 92C287.253 92 287.241 92 287.228 92C287.216 92 287.204 92 287.191 92C287.179 92 287.167 92 287.154 92C287.142 92 287.129 92 287.117 92C287.105 92 287.092 92 287.08 92C287.068 92 287.055 92 287.043 92C287.031 92 287.018 92 287.006 92C286.994 92 286.981 92 286.969 92C286.957 92 286.944 92 286.932 92C286.92 92 286.907 92 286.895 92C286.883 92 286.87 92 286.858 92C286.846 92 286.833 92 286.821 92C286.809 92 286.796 92 286.784 92C286.772 92 286.759 92 286.747 92C286.734 92 286.722 92 286.71 92C286.697 92 286.685 92 286.673 92C286.66 92 286.648 92 286.636 92C286.623 92 286.611 92 286.599 92C286.586 92 286.574 92 286.562 92C286.549 92 286.537 92 286.525 92C286.512 92 286.5 92 286.487 92C286.475 92 286.463 92 286.45 92C286.438 92 286.426 92 286.413 92C286.401 92 286.389 92 286.376 92C286.364 92 286.352 92 286.339 92C286.327 92 286.314 92 286.302 92C286.29 92 286.277 92 286.265 92C286.253 92 286.24 92 286.228 92C286.216 92 286.203 92 286.191 92C286.179 92 286.166 92 286.154 92C286.141 92 286.129 92 286.117 92C286.104 92 286.092 92 286.08 92C286.067 92 286.055 92 286.043 92C286.03 92 286.018 92 286.005 92C285.993 92 285.981 92 285.968 92C285.956 92 285.944 92 285.931 92C285.919 92 285.907 92 285.894 92C285.882 92 285.869 92 285.857 92C285.845 92 285.832 92 285.82 92C285.808 92 285.795 92 285.783 92C285.77 92 285.758 92 285.746 92C285.733 92 285.721 92 285.709 92C285.696 92 285.684 92 285.672 92C285.659 92 285.647 92 285.634 92C285.622 92 285.61 92 285.597 92C285.585 92 285.573 92 285.56 92C285.548 92 285.535 92 285.523 92C285.511 92 285.498 92 285.486 92C285.474 92 285.461 92 285.449 92C285.436 92 285.424 92 285.412 92C285.399 92 285.387 92 285.375 92C285.362 92 285.35 92 285.337 92C285.325 92 285.313 92 285.3 92C285.288 92 285.275 92 285.263 92C285.251 92 285.238 92 285.226 92C285.214 92 285.201 92 285.189 92C285.176 92 285.164 92 285.152 92C285.139 92 285.127 92 285.115 92C285.102 92 285.09 92 285.077 92C285.065 92 285.053 92 285.04 92C285.028 92 285.015 92 285.003 92C284.991 92 284.978 92 284.966 92C284.954 92 284.941 92 284.929 92C284.916 92 284.904 92 284.892 92C284.879 92 284.867 92 284.854 92C284.842 92 284.83 92 284.817 92C284.805 92 284.792 92 284.78 92C284.768 92 284.755 92 284.743 92C284.73 92 284.718 92 284.706 92C284.693 92 284.681 92 284.669 92C284.656 92 284.644 92 284.631 92C284.619 92 284.607 92 284.594 92C284.582 92 284.569 92 284.557 92C284.545 92 284.532 92 284.52 92C284.507 92 284.495 92 284.483 92C284.47 92 284.458 92 284.445 92C284.433 92 284.421 92 284.408 92C284.396 92 284.383 92 284.371 92C284.359 92 284.346 92 284.334 92C284.321 92 284.309 92 284.297 92C284.284 92 284.272 92 284.259 92C284.247 92 284.235 92 284.222 92C284.21 92 284.197 92 284.185 92C284.173 92 284.16 92 284.148 92C284.135 92 284.123 92 284.111 92C284.098 92 284.086 92 284.073 92C284.061 92 284.049 92 284.036 92C284.024 92 284.011 92 283.999 92C283.987 92 283.974 92 283.962 92C283.949 92 283.937 92 283.924 92C283.912 92 283.9 92 283.887 92C283.875 92 283.862 92 283.85 92C283.838 92 283.825 92 283.813 92C283.8 92 283.788 92 283.776 92C283.763 92 283.751 92 283.738 92C283.726 92 283.714 92 283.701 92C283.689 92 283.676 92 283.664 92C283.651 92 283.639 92 283.627 92C283.614 92 283.602 92 283.589 92C283.577 92 283.565 92 283.552 92C283.54 92 283.527 92 283.515 92C283.502 92 283.49 92 283.478 92C283.465 92 283.453 92 283.44 92C283.428 92 283.415 92 283.403 92C283.391 92 283.378 92 283.366 92C283.353 92 283.341 92 283.329 92C283.316 92 283.304 92 283.291 92C283.279 92 283.266 92 283.254 92C283.242 92 283.229 92 283.217 92C283.204 92 283.192 92 283.179 92C283.167 92 283.155 92 283.142 92C283.13 92 283.117 92 283.105 92C283.092 92 283.08 92 283.068 92C283.055 92 283.043 92 283.03 92C283.018 92 283.005 92 282.993 92C282.981 92 282.968 92 282.956 92C282.943 92 282.931 92 282.918 92C282.906 92 282.894 92 282.881 92C282.869 92 282.856 92 282.844 92C282.831 92 282.819 92 282.807 92C282.794 92 282.782 92 282.769 92C282.757 92 282.744 92 282.732 92C282.72 92 282.707 92 282.695 92C282.682 92 282.67 92 282.657 92C282.645 92 282.633 92 282.62 92C282.608 92 282.595 92 282.583 92C282.57 92 282.558 92 282.545 92C282.533 92 282.521 92 282.508 92C282.496 92 282.483 92 282.471 92C282.458 92 282.446 92 282.433 92C282.421 92 282.409 92 282.396 92C282.384 92 282.371 92 282.359 92C282.346 92 282.334 92 282.322 92C282.309 92 282.297 92 282.284 92C282.272 92 282.259 92 282.247 92C282.234 92 282.222 92 282.209 92C282.197 92 282.185 92 282.172 92C282.16 92 282.147 92 282.135 92C282.122 92 282.11 92 282.097 92C282.085 92 282.073 92 282.06 92C282.048 92 282.035 92 282.023 92C282.01 92 281.998 92 281.985 92C281.973 92 281.961 92 281.948 92C281.936 92 281.923 92 281.911 92C281.898 92 281.886 92 281.873 92C281.861 92 281.848 92 281.836 92C281.824 92 281.811 92 281.799 92C281.786 92 281.774 92 281.761 92C281.749 92 281.736 92 281.724 92C281.711 92 281.699 92 281.687 92C281.674 92 281.662 92 281.649 92C281.637 92 281.624 92 281.612 92C281.599 92 281.587 92 281.574 92C281.562 92 281.549 92 281.537 92C281.525 92 281.512 92 281.5 92C281.487 92 281.475 92 281.462 92C281.45 92 281.437 92 281.425 92C281.412 92 281.4 92 281.387 92C281.375 92 281.363 92 281.35 92C281.338 92 281.325 92 281.313 92C281.3 92 281.288 92 281.275 92C281.263 92 281.25 92 281.238 92C281.225 92 281.213 92 281.201 92C281.188 92 281.176 92 281.163 92C281.151 92 281.138 92 281.126 92C281.113 92 281.101 92 281.088 92C281.076 92 281.063 92 281.051 92C281.038 92 281.026 92 281.013 92C281.001 92 280.988 92 280.976 92C280.964 92 280.951 92 280.939 92C280.926 92 280.914 92 280.901 92C280.889 92 280.876 92 280.864 92C280.851 92 280.839 92 280.826 92C280.814 92 280.801 92 280.789 92C280.776 92 280.764 92 280.751 92C280.739 92 280.727 92 280.714 92C280.702 92 280.689 92 280.677 92C280.664 92 280.652 92 280.639 92C280.627 92 280.614 92 280.602 92C280.589 92 280.577 92 280.564 92C280.552 92 280.539 92 280.527 92C280.514 92 280.502 92 280.489 92C280.477 92 280.464 92 280.452 92C280.439 92 280.427 92 280.414 92C280.402 92 280.39 92 280.377 92C280.365 92 280.352 92 280.34 92C280.327 92 280.315 92 280.302 92C280.29 92 280.277 92 280.265 92C280.252 92 280.24 92 280.227 92C280.215 92 280.202 92 280.19 92C280.177 92 280.165 92 280.152 92C280.14 92 280.127 92 280.115 92C280.102 92 280.09 92 280.077 92C280.065 92 280.052 92 280.04 92C280.027 92 280.015 92 280.002 92C279.99 92 279.977 92 279.965 92C279.952 92 279.94 92 279.927 92C279.915 92 279.902 92 279.89 92C279.877 92 279.865 92 279.852 92C279.84 92 279.827 92 279.815 92C279.802 92 279.79 92 279.777 92C279.765 92 279.752 92 279.74 92C279.727 92 279.715 92 279.702 92C279.69 92 279.677 92 279.665 92C279.652 92 279.64 92 279.627 92C279.615 92 279.602 92 279.59 92C279.577 92 279.565 92 279.552 92C279.54 92 279.527 92 279.515 92C279.502 92 279.49 92 279.477 92C279.465 92 279.452 92 279.44 92C279.427 92 279.415 92 279.402 92C279.39 92 279.377 92 279.365 92C279.352 92 279.34 92 279.327 92C279.315 92 279.302 92 279.29 92C279.277 92 279.265 92 279.252 92C279.24 92 279.227 92 279.215 92C279.202 92 279.19 92 279.177 92C279.165 92 279.152 92 279.14 92C279.127 92 279.115 92 279.102 92C279.09 92 279.077 92 279.065 92C279.052 92 279.04 92 279.027 92C279.015 92 279.002 92 278.99 92C278.977 92 278.965 92 278.952 92C278.939 92 278.927 92 278.914 92C278.902 92 278.889 92 278.877 92C278.864 92 278.852 92 278.839 92C278.827 92 278.814 92 278.802 92C278.789 92 278.777 92 278.764 92C278.752 92 278.739 92 278.727 92C278.714 92 278.702 92 278.689 92C278.677 92 278.664 92 278.652 92C278.639 92 278.626 92 278.614 92C278.601 92 278.589 92 278.576 92C278.564 92 278.551 92 278.539 92C278.526 92 278.514 92 278.501 92C278.489 92 278.476 92 278.464 92C278.451 92 278.439 92 278.426 92C278.414 92 278.401 92 278.389 92C278.376 92 278.363 92 278.351 92C278.338 92 278.326 92 278.313 92C278.301 92 278.288 92 278.276 92C278.263 92 278.251 92 278.238 92C278.226 92 278.213 92 278.201 92C278.188 92 278.176 92 278.163 92C278.15 92 278.138 92 278.125 92C278.113 92 278.1 92 278.088 92C278.075 92 278.063 92 278.05 92C278.038 92 278.025 92 278.013 92C278 92 277.987 92 277.975 92C277.962 92 277.95 92 277.937 92C277.925 92 277.912 92 277.9 92C277.887 92 277.875 92 277.862 92C277.85 92 277.837 92 277.825 92C277.812 92 277.799 92 277.787 92C277.774 92 277.762 92 277.749 92C277.737 92 277.724 92 277.712 92C277.699 92 277.687 92 277.674 92C277.661 92 277.649 92 277.636 92C277.624 92 277.611 92 277.599 92C277.586 92 277.574 92 277.561 92C277.549 92 277.536 92 277.523 92C277.511 92 277.498 92 277.486 92C277.473 92 277.461 92 277.448 92C277.436 92 277.423 92 277.411 92C277.398 92 277.385 92 277.373 92C277.36 92 277.348 92 277.335 92C277.323 92 277.31 92 277.298 92C277.285 92 277.272 92 277.26 92C277.247 92 277.235 92 277.222 92C277.21 92 277.197 92 277.185 92C277.172 92 277.16 92 277.147 92C277.134 92 277.122 92 277.109 92C277.097 92 277.084 92 277.072 92C277.059 92 277.047 92 277.034 92C277.021 92 277.009 92 276.996 92C276.984 92 276.971 92 276.959 92C276.946 92 276.934 92 276.921 92C276.908 92 276.896 92 276.883 92C276.871 92 276.858 92 276.846 92C276.833 92 276.82 92 276.808 92C276.795 92 276.783 92 276.77 92C276.758 92 276.745 92 276.733 92C276.72 92 276.707 92 276.695 92C276.682 92 276.67 92 276.657 92C276.645 92 276.632 92 276.619 92C276.607 92 276.594 92 276.582 92C276.569 92 276.557 92 276.544 92C276.531 92 276.519 92 276.506 92C276.494 92 276.481 92 276.469 92C276.456 92 276.444 92 276.431 92C276.418 92 276.406 92 276.393 92C276.381 92 276.368 92 276.356 92C276.343 92 276.33 92 276.318 92C276.305 92 276.293 92 276.28 92C276.268 92 276.255 92 276.242 92C276.23 92 276.217 92 276.205 92C276.192 92 276.18 92 276.167 92C276.154 92 276.142 92 276.129 92C276.117 92 276.104 92 276.091 92C276.079 92 276.066 92 276.054 92C276.041 92 276.029 92 276.016 92V96C276.029 96 276.041 96 276.054 96C276.066 96 276.079 96 276.091 96C276.104 96 276.117 96 276.129 96C276.142 96 276.154 96 276.167 96C276.18 96 276.192 96 276.205 96C276.217 96 276.23 96 276.242 96C276.255 96 276.268 96 276.28 96C276.293 96 276.305 96 276.318 96C276.33 96 276.343 96 276.356 96C276.368 96 276.381 96 276.393 96C276.406 96 276.418 96 276.431 96C276.444 96 276.456 96 276.469 96C276.481 96 276.494 96 276.506 96C276.519 96 276.531 96 276.544 96C276.557 96 276.569 96 276.582 96C276.594 96 276.607 96 276.619 96C276.632 96 276.645 96 276.657 96C276.67 96 276.682 96 276.695 96C276.707 96 276.72 96 276.733 96C276.745 96 276.758 96 276.77 96C276.783 96 276.795 96 276.808 96C276.82 96 276.833 96 276.846 96C276.858 96 276.871 96 276.883 96C276.896 96 276.908 96 276.921 96C276.934 96 276.946 96 276.959 96C276.971 96 276.984 96 276.996 96C277.009 96 277.021 96 277.034 96C277.047 96 277.059 96 277.072 96C277.084 96 277.097 96 277.109 96C277.122 96 277.134 96 277.147 96C277.16 96 277.172 96 277.185 96C277.197 96 277.21 96 277.222 96C277.235 96 277.247 96 277.26 96C277.272 96 277.285 96 277.298 96C277.31 96 277.323 96 277.335 96C277.348 96 277.36 96 277.373 96C277.385 96 277.398 96 277.411 96C277.423 96 277.436 96 277.448 96C277.461 96 277.473 96 277.486 96C277.498 96 277.511 96 277.523 96C277.536 96 277.549 96 277.561 96C277.574 96 277.586 96 277.599 96C277.611 96 277.624 96 277.636 96C277.649 96 277.661 96 277.674 96C277.687 96 277.699 96 277.712 96C277.724 96 277.737 96 277.749 96C277.762 96 277.774 96 277.787 96C277.799 96 277.812 96 277.825 96C277.837 96 277.85 96 277.862 96C277.875 96 277.887 96 277.9 96C277.912 96 277.925 96 277.937 96C277.95 96 277.962 96 277.975 96C277.987 96 278 96 278.013 96C278.025 96 278.038 96 278.05 96C278.063 96 278.075 96 278.088 96C278.1 96 278.113 96 278.125 96C278.138 96 278.15 96 278.163 96C278.176 96 278.188 96 278.201 96C278.213 96 278.226 96 278.238 96C278.251 96 278.263 96 278.276 96C278.288 96 278.301 96 278.313 96C278.326 96 278.338 96 278.351 96C278.363 96 278.376 96 278.389 96C278.401 96 278.414 96 278.426 96C278.439 96 278.451 96 278.464 96C278.476 96 278.489 96 278.501 96C278.514 96 278.526 96 278.539 96C278.551 96 278.564 96 278.576 96C278.589 96 278.601 96 278.614 96C278.626 96 278.639 96 278.652 96C278.664 96 278.677 96 278.689 96C278.702 96 278.714 96 278.727 96C278.739 96 278.752 96 278.764 96C278.777 96 278.789 96 278.802 96C278.814 96 278.827 96 278.839 96C278.852 96 278.864 96 278.877 96C278.889 96 278.902 96 278.914 96C278.927 96 278.939 96 278.952 96C278.965 96 278.977 96 278.99 96C279.002 96 279.015 96 279.027 96C279.04 96 279.052 96 279.065 96C279.077 96 279.09 96 279.102 96C279.115 96 279.127 96 279.14 96C279.152 96 279.165 96 279.177 96C279.19 96 279.202 96 279.215 96C279.227 96 279.24 96 279.252 96C279.265 96 279.277 96 279.29 96C279.302 96 279.315 96 279.327 96C279.34 96 279.352 96 279.365 96C279.377 96 279.39 96 279.402 96C279.415 96 279.427 96 279.44 96C279.452 96 279.465 96 279.477 96C279.49 96 279.502 96 279.515 96C279.527 96 279.54 96 279.552 96C279.565 96 279.577 96 279.59 96C279.602 96 279.615 96 279.627 96C279.64 96 279.652 96 279.665 96C279.677 96 279.69 96 279.702 96C279.715 96 279.727 96 279.74 96C279.752 96 279.765 96 279.777 96C279.79 96 279.802 96 279.815 96C279.827 96 279.84 96 279.852 96C279.865 96 279.877 96 279.89 96C279.902 96 279.915 96 279.927 96C279.94 96 279.952 96 279.965 96C279.977 96 279.99 96 280.002 96C280.015 96 280.027 96 280.04 96C280.052 96 280.065 96 280.077 96C280.09 96 280.102 96 280.115 96C280.127 96 280.14 96 280.152 96C280.165 96 280.177 96 280.19 96C280.202 96 280.215 96 280.227 96C280.24 96 280.252 96 280.265 96C280.277 96 280.29 96 280.302 96C280.315 96 280.327 96 280.34 96C280.352 96 280.365 96 280.377 96C280.39 96 280.402 96 280.414 96C280.427 96 280.439 96 280.452 96C280.464 96 280.477 96 280.489 96C280.502 96 280.514 96 280.527 96C280.539 96 280.552 96 280.564 96C280.577 96 280.589 96 280.602 96C280.614 96 280.627 96 280.639 96C280.652 96 280.664 96 280.677 96C280.689 96 280.702 96 280.714 96C280.727 96 280.739 96 280.751 96C280.764 96 280.776 96 280.789 96C280.801 96 280.814 96 280.826 96C280.839 96 280.851 96 280.864 96C280.876 96 280.889 96 280.901 96C280.914 96 280.926 96 280.939 96C280.951 96 280.964 96 280.976 96C280.988 96 281.001 96 281.013 96C281.026 96 281.038 96 281.051 96C281.063 96 281.076 96 281.088 96C281.101 96 281.113 96 281.126 96C281.138 96 281.151 96 281.163 96C281.176 96 281.188 96 281.201 96C281.213 96 281.225 96 281.238 96C281.25 96 281.263 96 281.275 96C281.288 96 281.3 96 281.313 96C281.325 96 281.338 96 281.35 96C281.363 96 281.375 96 281.387 96C281.4 96 281.412 96 281.425 96C281.437 96 281.45 96 281.462 96C281.475 96 281.487 96 281.5 96C281.512 96 281.525 96 281.537 96C281.549 96 281.562 96 281.574 96C281.587 96 281.599 96 281.612 96C281.624 96 281.637 96 281.649 96C281.662 96 281.674 96 281.687 96C281.699 96 281.711 96 281.724 96C281.736 96 281.749 96 281.761 96C281.774 96 281.786 96 281.799 96C281.811 96 281.824 96 281.836 96C281.848 96 281.861 96 281.873 96C281.886 96 281.898 96 281.911 96C281.923 96 281.936 96 281.948 96C281.961 96 281.973 96 281.985 96C281.998 96 282.01 96 282.023 96C282.035 96 282.048 96 282.06 96C282.073 96 282.085 96 282.097 96C282.11 96 282.122 96 282.135 96C282.147 96 282.16 96 282.172 96C282.185 96 282.197 96 282.209 96C282.222 96 282.234 96 282.247 96C282.259 96 282.272 96 282.284 96C282.297 96 282.309 96 282.322 96C282.334 96 282.346 96 282.359 96C282.371 96 282.384 96 282.396 96C282.409 96 282.421 96 282.433 96C282.446 96 282.458 96 282.471 96C282.483 96 282.496 96 282.508 96C282.521 96 282.533 96 282.545 96C282.558 96 282.57 96 282.583 96C282.595 96 282.608 96 282.62 96C282.633 96 282.645 96 282.657 96C282.67 96 282.682 96 282.695 96C282.707 96 282.72 96 282.732 96C282.744 96 282.757 96 282.769 96C282.782 96 282.794 96 282.807 96C282.819 96 282.831 96 282.844 96C282.856 96 282.869 96 282.881 96C282.894 96 282.906 96 282.918 96C282.931 96 282.943 96 282.956 96C282.968 96 282.981 96 282.993 96C283.005 96 283.018 96 283.03 96C283.043 96 283.055 96 283.068 96C283.08 96 283.092 96 283.105 96C283.117 96 283.13 96 283.142 96C283.155 96 283.167 96 283.179 96C283.192 96 283.204 96 283.217 96C283.229 96 283.242 96 283.254 96C283.266 96 283.279 96 283.291 96C283.304 96 283.316 96 283.329 96C283.341 96 283.353 96 283.366 96C283.378 96 283.391 96 283.403 96C283.415 96 283.428 96 283.44 96C283.453 96 283.465 96 283.478 96C283.49 96 283.502 96 283.515 96C283.527 96 283.54 96 283.552 96C283.565 96 283.577 96 283.589 96C283.602 96 283.614 96 283.627 96C283.639 96 283.651 96 283.664 96C283.676 96 283.689 96 283.701 96C283.714 96 283.726 96 283.738 96C283.751 96 283.763 96 283.776 96C283.788 96 283.8 96 283.813 96C283.825 96 283.838 96 283.85 96C283.862 96 283.875 96 283.887 96C283.9 96 283.912 96 283.924 96C283.937 96 283.949 96 283.962 96C283.974 96 283.987 96 283.999 96C284.011 96 284.024 96 284.036 96C284.049 96 284.061 96 284.073 96C284.086 96 284.098 96 284.111 96C284.123 96 284.135 96 284.148 96C284.16 96 284.173 96 284.185 96C284.197 96 284.21 96 284.222 96C284.235 96 284.247 96 284.259 96C284.272 96 284.284 96 284.297 96C284.309 96 284.321 96 284.334 96C284.346 96 284.359 96 284.371 96C284.383 96 284.396 96 284.408 96C284.421 96 284.433 96 284.445 96C284.458 96 284.47 96 284.483 96C284.495 96 284.507 96 284.52 96C284.532 96 284.545 96 284.557 96C284.569 96 284.582 96 284.594 96C284.607 96 284.619 96 284.631 96C284.644 96 284.656 96 284.669 96C284.681 96 284.693 96 284.706 96C284.718 96 284.73 96 284.743 96C284.755 96 284.768 96 284.78 96C284.792 96 284.805 96 284.817 96C284.83 96 284.842 96 284.854 96C284.867 96 284.879 96 284.892 96C284.904 96 284.916 96 284.929 96C284.941 96 284.954 96 284.966 96C284.978 96 284.991 96 285.003 96C285.015 96 285.028 96 285.04 96C285.053 96 285.065 96 285.077 96C285.09 96 285.102 96 285.115 96C285.127 96 285.139 96 285.152 96C285.164 96 285.176 96 285.189 96C285.201 96 285.214 96 285.226 96C285.238 96 285.251 96 285.263 96C285.275 96 285.288 96 285.3 96C285.313 96 285.325 96 285.337 96C285.35 96 285.362 96 285.375 96C285.387 96 285.399 96 285.412 96C285.424 96 285.436 96 285.449 96C285.461 96 285.474 96 285.486 96C285.498 96 285.511 96 285.523 96C285.535 96 285.548 96 285.56 96C285.573 96 285.585 96 285.597 96C285.61 96 285.622 96 285.634 96C285.647 96 285.659 96 285.672 96C285.684 96 285.696 96 285.709 96C285.721 96 285.733 96 285.746 96C285.758 96 285.77 96 285.783 96C285.795 96 285.808 96 285.82 96C285.832 96 285.845 96 285.857 96C285.869 96 285.882 96 285.894 96C285.907 96 285.919 96 285.931 96C285.944 96 285.956 96 285.968 96C285.981 96 285.993 96 286.005 96C286.018 96 286.03 96 286.043 96C286.055 96 286.067 96 286.08 96C286.092 96 286.104 96 286.117 96C286.129 96 286.141 96 286.154 96C286.166 96 286.179 96 286.191 96C286.203 96 286.216 96 286.228 96C286.24 96 286.253 96 286.265 96C286.277 96 286.29 96 286.302 96C286.314 96 286.327 96 286.339 96C286.352 96 286.364 96 286.376 96C286.389 96 286.401 96 286.413 96C286.426 96 286.438 96 286.45 96C286.463 96 286.475 96 286.487 96C286.5 96 286.512 96 286.525 96C286.537 96 286.549 96 286.562 96C286.574 96 286.586 96 286.599 96C286.611 96 286.623 96 286.636 96C286.648 96 286.66 96 286.673 96C286.685 96 286.697 96 286.71 96C286.722 96 286.734 96 286.747 96C286.759 96 286.772 96 286.784 96C286.796 96 286.809 96 286.821 96C286.833 96 286.846 96 286.858 96C286.87 96 286.883 96 286.895 96C286.907 96 286.92 96 286.932 96C286.944 96 286.957 96 286.969 96C286.981 96 286.994 96 287.006 96C287.018 96 287.031 96 287.043 96C287.055 96 287.068 96 287.08 96C287.092 96 287.105 96 287.117 96C287.129 96 287.142 96 287.154 96C287.167 96 287.179 96 287.191 96C287.204 96 287.216 96 287.228 96C287.241 96 287.253 96 287.265 96C287.278 96 287.29 96 287.302 96C287.315 96 287.327 96 287.339 96C287.352 96 287.364 96 287.376 96C287.389 96 287.401 96 287.413 96C287.426 96 287.438 96 287.45 96C287.463 96 287.475 96 287.487 96C287.5 96 287.512 96 287.524 96C287.537 96 287.549 96 287.561 96C287.574 96 287.586 96 287.598 96C287.611 96 287.623 96 287.635 96C287.648 96 287.66 96 287.672 96C287.685 96 287.697 96 287.709 96C287.721 96 287.734 96 287.746 96C287.758 96 287.771 96 287.783 96C287.795 96 287.808 96 287.82 96C287.832 96 287.845 96 287.857 96C287.869 96 287.882 96 287.894 96C287.906 96 287.919 96 287.931 96C287.943 96 287.956 96 287.968 96C287.98 96 287.993 96 288.005 96C288.017 96 288.03 96 288.042 96C288.054 96 288.067 96 288.079 96C288.091 96 288.104 96 288.116 96C288.128 96 288.14 96 288.153 96C288.165 96 288.177 96 288.19 96C288.202 96 288.214 96 288.227 96C288.239 96 288.251 96 288.264 96C288.276 96 288.288 96 288.301 96C288.313 96 288.325 96 288.338 96C288.35 96 288.362 96 288.374 96C288.387 96 288.399 96 288.411 96C288.424 96 288.436 96 288.448 96C288.461 96 288.473 96 288.485 96C288.498 96 288.51 96 288.522 96C288.534 96 288.547 96 288.559 96C288.571 96 288.584 96 288.596 96C288.608 96 288.621 96 288.633 96C288.645 96 288.658 96 288.67 96C288.682 96 288.694 96 288.707 96C288.719 96 288.731 96 288.744 96C288.756 96 288.768 96 288.781 96C288.793 96 288.805 96 288.818 96C288.83 96 288.842 96 288.854 96C288.867 96 288.879 96 288.891 96C288.904 96 288.916 96 288.928 96C288.941 96 288.953 96 288.965 96C288.977 96 288.99 96 289.002 96C289.014 96 289.027 96 289.039 96C289.051 96 289.064 96 289.076 96C289.088 96 289.1 96 289.113 96C289.125 96 289.137 96 289.15 96C289.162 96 289.174 96 289.187 96C289.199 96 289.211 96 289.223 96C289.236 96 289.248 96 289.26 96C289.273 96 289.285 96 289.297 96C289.309 96 289.322 96 289.334 96C289.346 96 289.359 96 289.371 96C289.383 96 289.396 96 289.408 96C289.42 96 289.432 96 289.445 96C289.457 96 289.469 96 289.482 96C289.494 96 289.506 96 289.518 96C289.531 96 289.543 96 289.555 96C289.568 96 289.58 96 289.592 96C289.604 96 289.617 96 289.629 96C289.641 96 289.654 96 289.666 96C289.678 96 289.69 96 289.703 96C289.715 96 289.727 96 289.74 96C289.752 96 289.764 96 289.776 96C289.789 96 289.801 96 289.813 96C289.826 96 289.838 96 289.85 96C289.862 96 289.875 96 289.887 96C289.899 96 289.911 96 289.924 96C289.936 96 289.948 96 289.961 96C289.973 96 289.985 96 289.997 96C290.01 96 290.022 96 290.034 96C290.047 96 290.059 96 290.071 96C290.083 96 290.096 96 290.108 96C290.12 96 290.132 96 290.145 96C290.157 96 290.169 96 290.182 96C290.194 96 290.206 96 290.218 96C290.231 96 290.243 96 290.255 96C290.267 96 290.28 96 290.292 96C290.304 96 290.317 96 290.329 96C290.341 96 290.353 96 290.366 96C290.378 96 290.39 96 290.402 96C290.415 96 290.427 96 290.439 96C290.452 96 290.464 96 290.476 96C290.488 96 290.501 96 290.513 96C290.525 96 290.537 96 290.55 96C290.562 96 290.574 96 290.586 96C290.599 96 290.611 96 290.623 96C290.636 96 290.648 96 290.66 96C290.672 96 290.685 96 290.697 96C290.709 96 290.721 96 290.734 96C290.746 96 290.758 96 290.77 96C290.783 96 290.795 96 290.807 96C290.819 96 290.832 96 290.844 96C290.856 96 290.868 96 290.881 96C290.893 96 290.905 96 290.918 96C290.93 96 290.942 96 290.954 96C290.967 96 290.979 96 290.991 96C291.003 96 291.016 96 291.028 96C291.04 96 291.052 96 291.065 96C291.077 96 291.089 96 291.101 96C291.114 96 291.126 96 291.138 96C291.15 96 291.163 96 291.175 96C291.187 96 291.199 96 291.212 96C291.224 96 291.236 96 291.248 96C291.261 96 291.273 96 291.285 96C291.297 96 291.31 96 291.322 96C291.334 96 291.346 96 291.359 96C291.371 96 291.383 96 291.395 96C291.408 96 291.42 96 291.432 96C291.444 96 291.457 96 291.469 96C291.481 96 291.493 96 291.506 96C291.518 96 291.53 96 291.542 96C291.555 96 291.567 96 291.579 96C291.591 96 291.604 96 291.616 96C291.628 96 291.64 96 291.652 96C291.665 96 291.677 96 291.689 96C291.701 96 291.714 96 291.726 96C291.738 96 291.75 96 291.763 96C291.775 96 291.787 96 291.799 96C291.812 96 291.824 96 291.836 96C291.848 96 291.861 96 291.873 96C291.885 96 291.897 96 291.91 96C291.922 96 291.934 96 291.946 96C291.958 96 291.971 96 291.983 96C291.995 96 292.007 96 292.02 96C292.032 96 292.044 96 292.056 96C292.069 96 292.081 96 292.093 96C292.105 96 292.117 96 292.13 96C292.142 96 292.154 96 292.166 96C292.179 96 292.191 96 292.203 96C292.215 96 292.228 96 292.24 96C292.252 96 292.264 96 292.276 96C292.289 96 292.301 96 292.313 96C292.325 96 292.338 96 292.35 96C292.362 96 292.374 96 292.387 96C292.399 96 292.411 96 292.423 96C292.435 96 292.448 96 292.46 96C292.472 96 292.484 96 292.497 96C292.509 96 292.521 96 292.533 96C292.545 96 292.558 96 292.57 96C292.582 96 292.594 96 292.607 96C292.619 96 292.631 96 292.643 96C292.655 96 292.668 96 292.68 96C292.692 96 292.704 96 292.717 96C292.729 96 292.741 96 292.753 96C292.765 96 292.778 96 292.79 96C292.802 96 292.814 96 292.826 96C292.839 96 292.851 96 292.863 96C292.875 96 292.888 96 292.9 96C292.912 96 292.924 96 292.936 96C292.949 96 292.961 96 292.973 96C292.985 96 292.997 96 293.01 96C293.022 96 293.034 96 293.046 96C293.059 96 293.071 96 293.083 96C293.095 96 293.107 96 293.12 96C293.132 96 293.144 96 293.156 96C293.168 96 293.181 96 293.193 96C293.205 96 293.217 96 293.229 96C293.242 96 293.254 96 293.266 96C293.278 96 293.29 96 293.303 96C293.315 96 293.327 96 293.339 96C293.352 96 293.364 96 293.376 96C293.388 96 293.4 96 293.413 96C293.425 96 293.437 96 293.449 96C293.461 96 293.474 96 293.486 96C293.498 96 293.51 96 293.522 96C293.535 96 293.547 96 293.559 96C293.571 96 293.583 96 293.596 96C293.608 96 293.62 96 293.632 96C293.644 96 293.657 96 293.669 96C293.681 96 293.693 96 293.705 96C293.718 96 293.73 96 293.742 96C293.754 96 293.766 96 293.779 96C293.791 96 293.803 96 293.815 96C293.827 96 293.839 96 293.852 96C293.864 96 293.876 96 293.888 96C293.9 96 293.913 96 293.925 96C293.937 96 293.949 96 293.961 96C293.974 96 293.986 96 293.998 96C294.01 96 294.022 96 294.035 96C294.047 96 294.059 96 294.071 96C294.083 96 294.095 96 294.108 96C294.12 96 294.132 96 294.144 96C294.156 96 294.169 96 294.181 96C294.193 96 294.205 96 294.217 96C294.23 96 294.242 96 294.254 96C294.266 96 294.278 96 294.29 96C294.303 96 294.315 96 294.327 96C294.339 96 294.351 96 294.364 96C294.376 96 294.388 96 294.4 96C294.412 96 294.424 96 294.437 96C294.449 96 294.461 96 294.473 96C294.485 96 294.498 96 294.51 96C294.522 96 294.534 96 294.546 96C294.558 96 294.571 96 294.583 96C294.595 96 294.607 96 294.619 96C294.632 96 294.644 96 294.656 96C294.668 96 294.68 96 294.692 96C294.705 96 294.717 96 294.729 96C294.741 96 294.753 96 294.765 96C294.778 96 294.79 96 294.802 96C294.814 96 294.826 96 294.838 96C294.851 96 294.863 96 294.875 96C294.887 96 294.899 96 294.911 96C294.924 96 294.936 96 294.948 96C294.96 96 294.972 96 294.985 96C294.997 96 295.009 96 295.021 96V92ZM276.016 92C269.583 92 263.08 91.965 256.507 91.8951L256.465 95.8949C263.052 95.965 269.569 96 276.016 96V92ZM258.484 93.9762C259.045 80.1633 259.326 67.2909 259.326 55.36H255.326C255.326 67.2291 255.047 80.0467 254.488 93.8139L258.484 93.9762ZM259.326 55.36C259.326 43.2891 259.045 30.6955 258.484 17.5795L254.488 17.7505C255.047 30.8145 255.326 43.3509 255.326 55.36H259.326ZM256.654 19.658C264.903 18.9647 276.04 18.615 290.086 18.615V14.615C275.992 14.615 264.729 14.9653 256.319 15.672L256.654 19.658ZM297.961 75.105C304.669 75.105 309.884 73.4985 312.628 69.5146L309.334 67.2454C307.738 69.5615 304.273 71.105 297.961 71.105V75.105ZM312.628 69.5146C315.109 65.9126 316.236 61.1227 316.236 55.36H312.236C312.236 60.6572 311.193 64.5474 309.334 67.2454L312.628 69.5146ZM316.236 55.36C316.236 49.7601 315.02 45.0159 312.408 41.2957L309.134 43.5943C311.142 46.454 312.236 50.3199 312.236 55.36H316.236ZM312.424 41.3194C309.633 37.2201 304.525 35.51 297.961 35.51V39.51C303.997 39.51 307.429 41.0899 309.118 43.5706L312.424 41.3194ZM297.961 35.51C291.153 35.51 285.976 35.7194 282.488 36.1554L282.984 40.1246C286.216 39.7206 291.189 39.51 297.961 39.51V35.51ZM280.736 38.14V73.105H284.736V38.14H280.736ZM282.736 75.105H297.961V71.105H282.736V75.105ZM363.647 84.655L362.288 86.1225L362.295 86.1293L363.647 84.655ZM363.542 26.065L362.183 24.5975L362.176 24.6038L363.542 26.065ZM434.522 26.065L433.156 27.5262L433.163 27.5325L434.522 26.065ZM434.627 84.655L435.985 86.123V86.123L434.627 84.655ZM415.832 69.22L417.133 70.7385L417.142 70.7309L417.151 70.7233L415.832 69.22ZM415.832 41.5L414.513 43.0033L415.832 41.5ZM382.337 41.5L383.656 43.0033L382.337 41.5ZM382.337 69.115L383.656 67.6117L382.337 69.115ZM399.032 93.05C383.232 93.05 372.029 89.626 364.998 83.1807L362.295 86.1293C370.384 93.544 382.772 97.05 399.032 97.05V93.05ZM365.006 83.1875C357.943 76.6482 354.307 67.4316 354.307 55.255H350.307C350.307 68.2784 354.23 78.6618 362.288 86.1225L365.006 83.1875ZM354.307 55.255C354.307 43.2203 357.907 34.0683 364.907 27.5262L362.176 24.6038C354.196 32.0616 350.307 42.3697 350.307 55.255H354.307ZM364.901 27.5325C371.93 21.0234 383.163 17.565 399.032 17.565V13.565C382.7 13.565 370.273 17.1066 362.183 24.5975L364.901 27.5325ZM399.032 17.565C414.975 17.565 426.2 21.0255 433.156 27.5262L435.887 24.6038C427.863 17.1045 415.428 13.565 399.032 13.565V17.565ZM433.163 27.5325C440.23 34.0761 443.862 43.2261 443.862 55.255H447.862C447.862 42.3639 443.933 32.0539 435.881 24.5975L433.163 27.5325ZM443.862 55.255C443.862 67.512 440.254 76.7235 433.268 83.187L435.985 86.123C443.979 78.7265 447.862 68.338 447.862 55.255H443.862ZM433.268 83.187C426.314 89.6215 415.052 93.05 399.032 93.05V97.05C415.491 97.05 427.96 93.5485 435.985 86.123L433.268 83.187ZM399.032 75.63C406.965 75.63 413.158 74.1457 417.133 70.7385L414.53 67.7015C411.645 70.1743 406.638 71.63 399.032 71.63V75.63ZM417.151 70.7233C421.16 67.2052 422.977 61.9025 422.977 55.255H418.977C418.977 61.2075 417.364 65.2148 414.513 67.7168L417.151 70.7233ZM422.977 55.255C422.977 48.7309 421.151 43.5067 417.151 39.9967L414.513 43.0033C417.373 45.5133 418.977 49.4591 418.977 55.255H422.977ZM417.151 39.9967C413.174 36.5072 406.974 34.985 399.032 34.985V38.985C406.63 38.985 411.629 40.4728 414.513 43.0033L417.151 39.9967ZM399.032 34.985C391.154 34.985 384.992 36.5094 381.018 39.9967L383.656 43.0033C386.542 40.4706 391.509 38.985 399.032 38.985V34.985ZM381.018 39.9967C377.018 43.5067 375.192 48.7309 375.192 55.255H379.192C379.192 49.4591 380.796 45.5133 383.656 43.0033L381.018 39.9967ZM375.192 55.255C375.192 61.8408 377.013 67.1042 381.018 70.6182L383.656 67.6117C380.8 65.1058 379.192 61.1292 379.192 55.255H375.192ZM381.018 70.6182C384.992 74.1056 391.154 75.63 399.032 75.63V71.63C391.509 71.63 386.542 70.1444 383.656 67.6117L381.018 70.6182ZM505.071 72.79H503.071V74.8038L505.085 74.79L505.071 72.79ZM555.471 71.74L557.409 72.234L558.073 69.6287L555.387 69.7418L555.471 71.74ZM553.791 82.03L551.795 81.9026V81.9026L553.791 82.03ZM553.476 94V96H555.476V94H553.476ZM479.451 94L477.453 93.9176L477.367 96H479.451V94ZM479.451 17.77V15.77H477.367L477.453 17.8524L479.451 17.77ZM505.071 17.77H507.071V15.77H505.071V17.77ZM505.085 74.79C525.398 74.6499 542.223 74.2996 555.555 73.7382L555.387 69.7418C542.119 70.3004 525.345 70.6501 505.057 70.79L505.085 74.79ZM553.533 71.246C552.596 74.9223 552.014 78.4754 551.795 81.9026L555.787 82.1574C555.988 79.0046 556.526 75.6977 557.409 72.234L553.533 71.246ZM551.795 81.9026C551.582 85.2485 551.476 89.2836 551.476 94H555.476C555.476 89.3364 555.581 85.3915 555.787 82.1574L551.795 81.9026ZM553.476 92H479.451V96H553.476V92ZM481.449 94.0824C482.01 80.4789 482.291 67.7462 482.291 55.885H478.291C478.291 67.6838 478.012 80.3611 477.453 93.9176L481.449 94.0824ZM482.291 55.885C482.291 44.0238 482.01 31.2911 481.449 17.6876L477.453 17.8524C478.012 31.4089 478.291 44.0862 478.291 55.885H482.291ZM479.451 19.77H505.071V15.77H479.451V19.77ZM503.071 17.77V72.79H507.071V17.77H503.071ZM626.946 38.665L626.845 40.6625L628.946 40.7684V38.665H626.946ZM608.466 37.93L608.501 35.9303L606.466 35.8946V37.93H608.466ZM608.466 73.84H606.466V75.8748L608.5 75.8397L608.466 73.84ZM626.946 73.105H628.946V71.0007L626.844 71.1076L626.946 73.105ZM626.946 94V96H628.946V94H626.946ZM565.941 94H563.941V96H565.941V94ZM565.941 73.105L566.045 71.1077L563.941 70.9979V73.105H565.941ZM584.316 73.84L584.282 75.8397L586.316 75.8736V73.84H584.316ZM584.316 37.93H586.316V35.8964L584.282 35.9303L584.316 37.93ZM565.941 38.665H563.941V40.7721L566.045 40.6623L565.941 38.665ZM565.941 17.77V15.77H563.941V17.77H565.941ZM626.946 17.77H628.946V15.77H626.946V17.77ZM627.046 36.6675C618.713 36.2473 612.525 36.0009 608.501 35.9303L608.431 39.9297C612.386 39.9991 618.519 40.2426 626.845 40.6625L627.046 36.6675ZM606.466 37.93V73.84H610.466V37.93H606.466ZM608.5 75.8397C612.595 75.7691 618.783 75.5226 627.047 75.1024L626.844 71.1076C618.589 71.5274 612.456 71.7709 608.431 71.8403L608.5 75.8397ZM624.946 73.105V94H628.946V73.105H624.946ZM626.946 92H565.941V96H626.946V92ZM567.941 94V73.105H563.941V94H567.941ZM565.836 75.1023C573.893 75.5226 580.046 75.7691 584.282 75.8397L584.349 71.8403C580.185 71.7709 574.089 71.5274 566.045 71.1077L565.836 75.1023ZM586.316 73.84V37.93H582.316V73.84H586.316ZM584.282 35.9303C580.046 36.0009 573.893 36.2474 565.836 36.6677L566.045 40.6623C574.089 40.2426 580.185 39.9991 584.349 39.9297L584.282 35.9303ZM567.941 38.665V17.77H563.941V38.665H567.941ZM565.941 19.77H626.946V15.77H565.941V19.77ZM624.946 17.77V38.665H628.946V17.77H624.946ZM637.46 84.97L635.796 83.8606L634.55 85.7293L636.55 86.751L637.46 84.97ZM643.34 74.995L641.567 74.0685L641.559 74.0845L641.551 74.1006L643.34 74.995ZM647.96 64.285L648.96 62.553L646.892 61.359L646.079 63.6041L647.96 64.285ZM665.285 71.005L664.809 72.9477L665.285 71.005ZM695.945 71.95L696.706 73.7994L696.729 73.7899L696.752 73.7798L695.945 71.95ZM648.905 57.775L648.058 59.5869L648.066 59.5907L648.074 59.5944L648.905 57.775ZM651.005 22.39L651.997 24.1265L651.005 22.39ZM703.925 18.505L703.444 20.4463L703.454 20.4489L703.465 20.4514L703.925 18.505ZM724.715 26.065L726.546 26.8695L727.298 25.1584L725.641 24.2925L724.715 26.065ZM718.31 42.97L716.414 42.3316L716.404 42.3633L716.394 42.3953L718.31 42.97ZM717.26 46.12L716.007 47.6787L718.113 49.3721L719.117 46.8628L717.26 46.12ZM701.09 38.98L700.565 40.91L700.574 40.9123L700.583 40.9146L701.09 38.98ZM668.54 37.405L669.223 39.2846L669.248 39.2755L669.273 39.2658L668.54 37.405ZM669.8 45.28L669.167 47.1774L669.192 47.1857L669.217 47.1933L669.8 45.28ZM716 51.895L715.09 53.6764L715.098 53.6801L715.105 53.6839L716 51.895ZM715.37 88.645L716.396 90.3615L716.402 90.3578L716.409 90.354L715.37 88.645ZM659.195 92.53L658.77 94.4844L658.778 94.4861L658.786 94.4878L659.195 92.53ZM639.124 86.0794C641.539 82.4564 643.544 79.059 645.128 75.8894L641.551 74.1006C640.056 77.091 638.14 80.3436 635.796 83.8606L639.124 86.0794ZM645.112 75.9215C646.772 72.7459 648.347 69.0908 649.84 64.9659L646.079 63.6041C644.633 67.5992 643.127 71.0841 641.567 74.0685L645.112 75.9215ZM646.959 66.017C652.12 68.997 658.077 71.3005 664.809 72.9477L665.76 69.0623C659.332 67.4895 653.739 65.313 648.96 62.553L646.959 66.017ZM664.809 72.9477C671.516 74.5886 677.802 75.42 683.66 75.42V71.42C678.177 71.42 672.214 70.6414 665.76 69.0623L664.809 72.9477ZM683.66 75.42C689.484 75.42 693.93 74.9424 696.706 73.7994L695.183 70.1006C693.199 70.9176 689.455 71.42 683.66 71.42V75.42ZM696.752 73.7798C698.042 73.2108 699.164 72.5587 699.993 71.7789C700.835 70.9865 701.515 69.9179 701.515 68.59H697.515C697.515 68.4521 697.6 68.5385 697.251 68.8661C696.89 69.2063 696.228 69.6392 695.137 70.1202L696.752 73.7798ZM701.515 68.59C701.515 65.1075 698.753 63.033 695.255 61.8858C691.692 60.7171 686.552 60.185 679.985 60.185V64.185C686.438 64.185 691.062 64.7204 694.009 65.6867C697.021 66.6745 697.515 67.8025 697.515 68.59H701.515ZM679.985 60.185C665.758 60.185 655.764 58.7077 649.735 55.9556L648.074 59.5944C654.926 62.7223 665.651 64.185 679.985 64.185V60.185ZM649.751 55.9631C646.789 54.5783 644.69 52.8343 643.324 50.7856C641.963 48.7451 641.245 46.2743 641.245 43.285H637.245C637.245 46.9457 638.136 50.2149 639.996 53.0044C641.85 55.7857 644.581 57.9617 648.058 59.5869L649.751 55.9631ZM641.245 43.285C641.245 34.5116 644.815 28.2304 651.997 24.1265L650.012 20.6535C641.514 25.5096 637.245 33.1584 637.245 43.285H641.245ZM651.997 24.1265C659.44 19.8733 669.249 17.67 681.56 17.67V13.67C668.81 13.67 658.249 15.9466 650.012 20.6535L651.997 24.1265ZM681.56 17.67C688.665 17.67 695.959 18.5922 703.444 20.4463L704.406 16.5637C696.631 14.6378 689.014 13.67 681.56 13.67V17.67ZM703.465 20.4514C711.024 22.2382 717.794 24.7044 723.788 27.8374L725.641 24.2925C719.315 20.9856 712.225 18.4118 704.385 16.5586L703.465 20.4514ZM722.884 25.2605C720.823 29.9512 718.667 35.6452 716.414 42.3316L720.205 43.6084C722.433 36.9948 724.547 31.4188 726.546 26.8695L722.884 25.2605ZM716.394 42.3953C715.978 43.7806 715.649 44.762 715.403 45.3772L719.117 46.8628C719.43 46.078 719.801 44.9594 720.225 43.5447L716.394 42.3953ZM718.513 44.5612C714.628 41.4382 708.929 38.9674 701.597 37.0454L700.583 40.9146C707.67 42.7726 712.751 45.0618 716.007 47.6787L718.513 44.5612ZM701.614 37.05C694.289 35.0587 687.737 34.04 681.98 34.04V38.04C687.283 38.04 693.47 38.9813 700.565 40.91L701.614 37.05ZM681.98 34.04C678.616 34.04 675.761 34.1548 673.43 34.3915C671.13 34.6251 669.217 34.9885 667.807 35.5442L669.273 39.2658C670.172 38.9115 671.654 38.5924 673.834 38.371C675.984 38.1527 678.694 38.04 681.98 38.04V34.04ZM667.856 35.5254C666.522 36.0104 665.336 36.6806 664.467 37.6285C663.557 38.6203 663.075 39.835 663.075 41.185H667.075C667.075 40.855 667.169 40.5997 667.415 40.3314C667.701 40.0194 668.247 39.6396 669.223 39.2846L667.856 35.5254ZM663.075 41.185C663.075 42.7409 663.835 44.0168 664.946 44.9801C666.014 45.9061 667.474 46.6129 669.167 47.1774L670.432 43.3826C668.976 42.8971 668.072 42.3964 667.566 41.9574C667.102 41.5557 667.075 41.3091 667.075 41.185H663.075ZM669.217 47.1933C672.719 48.2591 677.572 48.75 683.66 48.75V44.75C677.708 44.75 673.32 44.2609 670.382 43.3667L669.217 47.1933ZM683.66 48.75C698.433 48.75 708.812 50.4716 715.09 53.6764L716.909 50.1136C709.748 46.4584 698.567 44.75 683.66 44.75V48.75ZM715.105 53.6839C718.215 55.2389 720.434 57.1563 721.882 59.3884C723.324 61.6124 724.08 64.2681 724.08 67.435H728.08C728.08 63.6019 727.155 60.1676 725.238 57.2116C723.325 54.2637 720.504 51.9111 716.894 50.1061L715.105 53.6839ZM724.08 67.435C724.08 76.6788 720.762 83.0269 714.331 86.936L716.409 90.354C724.258 85.5831 728.08 77.7912 728.08 67.435H724.08ZM714.343 86.9285C707.666 90.9215 697.287 93.05 682.925 93.05V97.05C697.542 97.05 708.793 94.9085 716.396 90.3615L714.343 86.9285ZM682.925 93.05C675.3 93.05 667.527 92.2258 659.603 90.5722L658.786 94.4878C666.963 96.1942 675.01 97.05 682.925 97.05V93.05ZM659.62 90.5756C651.715 88.8573 644.636 86.3905 638.37 83.189L636.55 86.751C643.163 90.1295 650.574 92.7027 658.77 94.4844L659.62 90.5756ZM822.553 39.82L822.489 41.819L824.553 41.8847V39.82H822.553ZM790.528 39.19L790.541 37.19L788.528 37.1764V39.19H790.528ZM790.528 94V96H792.528V94H790.528ZM764.278 94H762.278V96H764.278V94ZM764.278 39.19H766.278V37.1765L764.264 37.19L764.278 39.19ZM732.358 39.82H730.358V41.8856L732.422 41.819L732.358 39.82ZM732.358 17.77V15.77H730.358V17.77H732.358ZM822.553 17.77H824.553V15.77H822.553V17.77ZM822.616 37.821C811.61 37.4705 800.919 37.2602 790.541 37.19L790.514 41.1899C800.856 41.2598 811.515 41.4695 822.489 41.819L822.616 37.821ZM788.528 39.19V94H792.528V39.19H788.528ZM790.528 92H764.278V96H790.528V92ZM766.278 94V39.19H762.278V94H766.278ZM764.264 37.19C753.816 37.2602 743.159 37.4705 732.293 37.821L732.422 41.819C743.256 41.4695 753.879 41.2598 764.291 41.19L764.264 37.19ZM734.358 39.82V17.77H730.358V39.82H734.358ZM732.358 19.77H822.553V15.77H732.358V19.77ZM820.553 17.77V39.82H824.553V17.77H820.553Z" fill="black" mask="url(#path-1-outside-1_23_3161)"/>
</svg>
