<svg width="617" height="730" viewBox="0 0 617 730" fill="none" xmlns="http://www.w3.org/2000/svg">
<path d="M0 27.4562H617V702.456H0V27.4562Z" fill="#FFFAED"/>
<path d="M20.0622 727.154L0 701.956H617L603.939 725.599C602.172 728.797 597.683 729.082 595.526 726.132L584.867 711.554C581.515 706.97 574.586 707.241 571.602 712.073L562.753 726.405C560.934 729.351 556.744 729.601 554.587 726.893L541.263 710.157C537.975 706.028 531.661 706.158 528.546 710.418L515.892 727.724C514.077 730.207 510.471 730.477 508.305 728.292L488.537 708.348C485.165 704.946 479.58 705.249 476.596 708.997L461.715 727.687C459.75 730.155 456.02 730.209 453.984 727.8L438.201 709.12C435.024 705.361 429.239 705.334 426.028 709.063L409.671 728.057C407.676 730.373 404.088 730.373 402.093 728.057L386.19 709.59C382.829 705.687 376.71 705.931 373.67 710.088L361.182 727.168C359.235 729.83 355.289 729.911 353.234 727.331L339.751 710.397C336.407 706.196 329.955 706.417 326.907 710.838L316.017 726.631C314.057 729.473 309.875 729.521 307.85 726.725L296.141 710.554C293.022 706.247 286.647 706.125 283.366 710.309L269.727 727.703C267.792 730.17 264.089 730.268 262.027 727.906L246.323 709.923C242.833 705.926 236.49 706.372 233.594 710.819L223.369 726.517C221.483 729.412 217.298 729.567 215.203 726.819L202.746 710.478C199.504 706.225 193.083 706.289 189.926 710.606L177.816 727.168C175.869 729.83 171.923 729.911 169.869 727.331L156.005 709.919C152.777 705.864 146.604 705.902 143.426 709.997L129.705 727.681C127.782 730.16 124.078 730.276 122.004 727.922L104.971 708.598C101.838 705.044 96.3197 704.976 93.1002 708.452L74.7085 728.31C72.6678 730.513 69.1591 730.433 67.2209 728.139L51.8871 709.991C48.4737 705.951 42.1496 706.276 39.1684 710.645L28.1038 726.858C26.2063 729.639 22.1589 729.788 20.0622 727.154Z" fill="#FFFAED"/>
<path d="M20.0622 2.75815L0 27.9562H617L603.939 4.31378C602.172 1.11544 597.683 0.830829 595.526 3.78042L584.867 18.358C581.515 22.9427 574.586 22.6716 571.602 17.8391L562.753 3.50739C560.934 0.561366 556.744 0.311194 554.587 3.01987L541.263 19.7555C537.975 23.8843 531.661 23.7546 528.546 19.4944L515.892 2.18864C514.077 -0.294572 510.471 -0.564824 508.305 1.62002L488.537 21.5646C485.165 24.9665 479.58 24.663 476.596 20.9159L461.715 2.22493C459.75 -0.242608 456.02 -0.29696 453.984 2.1123L438.201 20.7925C435.024 24.5517 429.239 24.5789 426.028 20.8497L409.671 1.85567C407.676 -0.460656 404.088 -0.460652 402.093 1.85567L386.19 20.3227C382.829 24.2253 376.71 23.9816 373.67 19.8242L361.182 2.74482C359.235 0.0821791 355.289 0.00114727 353.234 2.58164L339.751 19.5158C336.407 23.7167 329.955 23.4949 326.907 19.0743L316.017 3.28103C314.057 0.439048 309.875 0.39091 307.85 3.18703L296.141 19.3586C293.022 23.6658 286.647 23.7878 283.366 19.6031L269.727 2.20986C267.792 -0.257977 264.089 -0.355851 262.027 2.00633L246.323 19.9896C242.833 23.9864 236.49 23.54 233.594 19.0938L223.369 3.39584C221.483 0.50011 217.298 0.345225 215.203 3.09361L202.746 19.4346C199.504 23.6877 193.083 23.6236 189.926 19.3067L177.816 2.74482C175.869 0.0821791 171.923 0.00114727 169.869 2.58164L156.005 19.9937C152.777 24.0486 146.604 24.01 143.426 19.9149L129.705 2.23104C127.782 -0.247369 124.078 -0.363275 122.004 1.99005L104.971 21.3141C101.838 24.8685 96.3197 24.9364 93.1002 21.4603L74.7085 1.60249C72.6678 -0.600801 69.1591 -0.520887 67.2209 1.77303L51.8871 19.9211C48.4737 23.9609 42.1496 23.6359 39.1684 19.2674L28.1038 3.05408C26.2063 0.273631 22.1589 0.124686 20.0622 2.75815Z" fill="#FFFAED"/>
</svg>